# xmcd CD database file
#
# Track frame offsets:
#	150
#	19788
#	41342
#	64544
#	92061
#	116268
#	135198
#	155647
#	175298
#	196914
#	219288
#	241505
#	265499
#	292528
#	316157
#	345831
#	372552
#
# Disc length: 5061 seconds
#
# Revision: 0
# Processed by: cddbd v1.5.2PL0 Copyright (c) Steve Scherf et al.
# Submitted via: Feurio! 1.68 - http://www.feurio.com
#
DISCID=dd13c311
DTITLE=Uri Orlev - Lauf, Junge, lauf - CD 03
DYEAR=2005
DGENRE=Hörbuch
TTITLE0=Lauf, Junge, lauf - CD 03 - 01
TTITLE1=Lauf, Junge, lauf - CD 03 - 02
TTITLE2=Lauf, Junge, lauf - CD 03 - 03
TTITLE3=Lauf, Junge, lauf - CD 03 - 04
TTITLE4=Lauf, Junge, lauf - CD 03 - 05
TTITLE5=Lauf, Junge, lauf - CD 03 - 06
TTITLE6=Lauf, Junge, lauf - CD 03 - 07
TTITLE7=Lauf, Junge, lauf - CD 03 - 08
TTITLE8=Lauf, Junge, lauf - CD 03 - 09
TTITLE9=Lauf, Junge, lauf - CD 03 - 10
TTITLE10=Lauf, Junge, lauf - CD 03 - 11
TTITLE11=Lauf, Junge, lauf - CD 03 - 12
TTITLE12=Lauf, Junge, lauf - CD 03 - 13
TTITLE13=Lauf, Junge, lauf - CD 03 - 14
TTITLE14=Lauf, Junge, lauf - CD 03 - 15
TTITLE15=Lauf, Junge, lauf - CD 03 - 16
TTITLE16=Lauf, Junge, lauf - CD 03 - 17
EXTD=Gelesen von Ulrich Pleitgen
EXTT0=
EXTT1=
EXTT2=
EXTT3=
EXTT4=
EXTT5=
EXTT6=
EXTT7=
EXTT8=
EXTT9=
EXTT10=
EXTT11=
EXTT12=
EXTT13=
EXTT14=
EXTT15=
EXTT16=
PLAYORDER=
